<svg width="22" height="22" viewBox="0 0 22 22" fill="none" xmlns="http://www.w3.org/2000/svg">
<path d="M8.38805 11C11.4721 11 13.9801 8.53325 13.9801 5.5C13.9801 2.46675 11.4721 0 8.38805 0C5.30405 0 2.79602 2.46675 2.79602 5.5C2.79602 8.53325 5.30405 11 8.38805 11ZM8.38805 0.916667C10.9576 0.916667 13.0481 2.97275 13.0481 5.5C13.0481 8.02725 10.9576 10.0833 8.38805 10.0833C5.81851 10.0833 3.72802 8.02725 3.72802 5.5C3.72802 2.97275 5.81851 0.916667 8.38805 0.916667ZM22 20.9898L18.6401 17.6852C19.2142 16.9794 19.5721 16.0967 19.5721 15.125C19.5721 12.8507 17.6904 11 15.3781 11C13.0658 11 11.1841 12.8507 11.1841 15.125C11.1841 17.3993 13.0658 19.25 15.3781 19.25C16.366 19.25 17.2635 18.898 17.9812 18.3333L21.3411 21.6379L22 20.9898ZM15.3781 18.3333C13.5793 18.3333 12.1161 16.8942 12.1161 15.125C12.1161 13.3558 13.5793 11.9167 15.3781 11.9167C17.1769 11.9167 18.6401 13.3558 18.6401 15.125C18.6401 16.8942 17.1769 18.3333 15.3781 18.3333ZM9.78606 12.8333C9.66117 13.1276 9.56518 13.4347 9.48875 13.75H4.19403C2.39526 13.75 0.932006 15.1892 0.932006 16.9583V22H0V16.9583C0 14.6841 1.88172 12.8333 4.19403 12.8333H9.78606Z" fill="black"/>
</svg>
