<svg width="22" height="22" viewBox="0 0 22 22" fill="none" xmlns="http://www.w3.org/2000/svg">
<g clip-path="url(#clip0_4_349)">
<path d="M11 3.66667C12.0111 3.66667 12.8333 2.84442 12.8333 1.83333C12.8333 0.82225 12.0111 0 11 0C9.98892 0 9.16667 0.82225 9.16667 1.83333C9.16667 2.84442 9.98892 3.66667 11 3.66667ZM11 0.916667C11.5051 0.916667 11.9167 1.32825 11.9167 1.83333C11.9167 2.33842 11.5051 2.75 11 2.75C10.4949 2.75 10.0833 2.33842 10.0833 1.83333C10.0833 1.32825 10.4949 0.916667 11 0.916667ZM22 11.9167V12.8333H21.0833V11.9167C21.0833 11.4116 20.6727 11 20.1667 11H18.3333C17.8273 11 17.4167 11.4116 17.4167 11.9167V12.8333H16.5V11.9167C16.5 10.9056 17.3223 10.0833 18.3333 10.0833H20.1667C21.1777 10.0833 22 10.9056 22 11.9167ZM9.16667 7.33333H8.25V6.41667C8.25 5.40558 9.07225 4.58333 10.0833 4.58333H11.9167C12.9278 4.58333 13.75 5.40558 13.75 6.41667V7.33333H12.8333V6.41667C12.8333 5.91158 12.4227 5.5 11.9167 5.5H10.0833C9.57825 5.5 9.16667 5.91158 9.16667 6.41667V7.33333ZM19.25 9.16667C20.2611 9.16667 21.0833 8.34442 21.0833 7.33333C21.0833 6.32225 20.2611 5.5 19.25 5.5C18.2389 5.5 17.4167 6.32225 17.4167 7.33333C17.4167 8.34442 18.2389 9.16667 19.25 9.16667ZM19.25 6.41667C19.756 6.41667 20.1667 6.82825 20.1667 7.33333C20.1667 7.83842 19.756 8.25 19.25 8.25C18.744 8.25 18.3333 7.83842 18.3333 7.33333C18.3333 6.82825 18.744 6.41667 19.25 6.41667ZM2.75 7.33333C3.76108 7.33333 4.58333 6.51108 4.58333 5.5C4.58333 4.48892 3.76108 3.66667 2.75 3.66667C1.73892 3.66667 0.916667 4.48892 0.916667 5.5C0.916667 6.51108 1.73892 7.33333 2.75 7.33333ZM2.75 4.58333C3.25508 4.58333 3.66667 4.99492 3.66667 5.5C3.66667 6.00508 3.25508 6.41667 2.75 6.41667C2.24492 6.41667 1.83333 6.00508 1.83333 5.5C1.83333 4.99492 2.24492 4.58333 2.75 4.58333ZM20.1667 15.5833H16.0417C15.708 15.5833 15.3945 15.6732 15.125 15.8299V11C15.125 9.98892 14.3028 9.16667 13.2917 9.16667H8.70833C7.69725 9.16667 6.875 9.98892 6.875 11V13.0799C6.6055 12.9232 6.292 12.8333 5.95833 12.8333H1.83333C0.82225 12.8333 0 13.6556 0 14.6667V22H22V17.4167C22 16.4056 21.1777 15.5833 20.1667 15.5833ZM7.79167 11C7.79167 10.4949 8.20325 10.0833 8.70833 10.0833H13.2917C13.7977 10.0833 14.2083 10.4949 14.2083 11V21.0833H7.79167V11ZM0.916667 14.6667C0.916667 14.1616 1.32825 13.75 1.83333 13.75H5.95833C6.46342 13.75 6.875 14.1616 6.875 14.6667V21.0833H0.916667V14.6667ZM21.0833 21.0833H15.125V17.4167C15.125 16.9116 15.5357 16.5 16.0417 16.5H20.1667C20.6727 16.5 21.0833 16.9116 21.0833 17.4167V21.0833ZM0.916667 11H0V10.0833C0 9.07225 0.82225 8.25 1.83333 8.25H3.66667C4.67775 8.25 5.5 9.07225 5.5 10.0833V11H4.58333V10.0833C4.58333 9.57825 4.17175 9.16667 3.66667 9.16667H1.83333C1.32825 9.16667 0.916667 9.57825 0.916667 10.0833V11Z" fill="black"/>
</g>
<defs>
<clipPath id="clip0_4_349">
<rect width="22" height="22" fill="white"/>
</clipPath>
</defs>
</svg>
