<svg width="21" height="22" viewBox="0 0 21 22" fill="none" xmlns="http://www.w3.org/2000/svg">
<path d="M4.125 4.58333C5.39 4.58333 6.41667 3.55667 6.41667 2.29167C6.41667 1.02667 5.39 0 4.125 0C2.86 0 1.83333 1.02667 1.83333 2.29167C1.83333 3.55667 2.86 4.58333 4.125 4.58333ZM4.125 0.916667C4.88583 0.916667 5.5 1.53083 5.5 2.29167C5.5 3.0525 4.88583 3.66667 4.125 3.66667C3.36417 3.66667 2.75 3.0525 2.75 2.29167C2.75 1.53083 3.36417 0.916667 4.125 0.916667ZM5.95833 5.5H2.29167C1.02667 5.5 0 6.52667 0 7.79167V15.5833H1.83333V22H2.75V15.5833H5.5V22H6.41667V15.5833H8.25V7.79167C8.25 6.52667 7.22333 5.5 5.95833 5.5ZM7.33333 14.6667H0.916667V7.79167C0.916667 7.03083 1.53083 6.41667 2.29167 6.41667H5.95833C6.71917 6.41667 7.33333 7.03083 7.33333 7.79167V14.6667ZM16.0417 4.58333C17.3067 4.58333 18.3333 3.55667 18.3333 2.29167C18.3333 1.02667 17.3067 0 16.0417 0C14.7767 0 13.75 1.02667 13.75 2.29167C13.75 3.55667 14.7767 4.58333 16.0417 4.58333ZM16.0417 0.916667C16.8025 0.916667 17.4167 1.53083 17.4167 2.29167C17.4167 3.0525 16.8025 3.66667 16.0417 3.66667C15.2808 3.66667 14.6667 3.0525 14.6667 2.29167C14.6667 1.53083 15.2808 0.916667 16.0417 0.916667ZM20.1667 7.79167C20.1667 6.52667 19.14 5.5 17.875 5.5H14.2083C12.9433 5.5 11.9167 6.52667 11.9167 7.79167V15.5833H13.75V22H14.6667V15.5833H17.4167V22H18.3333V15.5833H20.1667V7.79167ZM19.25 14.6667H12.8333V7.79167C12.8333 7.03083 13.4475 6.41667 14.2083 6.41667H17.875C18.6358 6.41667 19.25 7.03083 19.25 7.79167V14.6667Z" fill="black"/>
</svg>
