<svg width="22" height="22" viewBox="0 0 22 22" fill="none" xmlns="http://www.w3.org/2000/svg">
<path d="M1.37496 5.70808H3.59788C3.78029 7.91816 5.30379 8.18674 6.46888 8.18674C7.63396 8.18674 9.15654 7.91816 9.33988 5.70808H20.6259C20.8789 5.70808 21.0842 5.50274 21.0842 5.24974C21.0842 4.99674 20.8789 4.79141 20.6259 4.79141H9.33896C9.15654 2.58133 7.63304 2.31274 6.46796 2.31274C5.30288 2.31274 3.78029 2.58133 3.59696 4.79141H1.37496C1.12196 4.79141 0.916626 4.99674 0.916626 5.24974C0.916626 5.50274 1.12196 5.70808 1.37496 5.70808ZM6.46796 3.22941C7.71646 3.22941 8.43971 3.55941 8.43971 5.24974C8.43971 6.94008 7.71646 7.27008 6.46796 7.27008C5.21946 7.27008 4.49621 6.94008 4.49621 5.24974C4.49621 3.55941 5.21946 3.22941 6.46796 3.22941Z" fill="black"/>
<path d="M20.625 10.5417H18.402C18.2196 8.33157 16.6961 8.06299 15.531 8.06299C14.366 8.06299 12.8434 8.33157 12.66 10.5417H1.37496C1.12196 10.5417 0.916626 10.747 0.916626 11C0.916626 11.253 1.12196 11.4583 1.37496 11.4583H12.661C12.8434 13.6684 14.3669 13.937 15.532 13.937C16.697 13.937 18.2196 13.6684 18.403 11.4583H20.6259C20.8789 11.4583 21.0842 11.253 21.0842 11C21.0842 10.747 20.878 10.5417 20.625 10.5417ZM15.532 13.0203C14.2835 13.0203 13.5602 12.6903 13.5602 11C13.5602 9.30966 14.2835 8.97965 15.532 8.97965C16.7805 8.97965 17.5037 9.30966 17.5037 11C17.5037 12.6903 16.7805 13.0203 15.532 13.0203Z" fill="black"/>
<path d="M20.625 16.2919H9.33896C9.15654 14.0818 7.63304 13.8132 6.46796 13.8132C5.30288 13.8132 3.78029 14.0818 3.59696 16.2919H1.37496C1.12196 16.2919 0.916626 16.4972 0.916626 16.7502C0.916626 17.0032 1.12196 17.2086 1.37496 17.2086H3.59788C3.78029 19.4177 5.30471 19.6863 6.46888 19.6863C7.63304 19.6863 9.15654 19.4177 9.33988 17.2086H20.6259C20.8789 17.2086 21.0842 17.0032 21.0842 16.7502C21.0842 16.4972 20.878 16.2919 20.625 16.2919ZM6.46796 18.7696C5.21946 18.7696 4.49621 18.4396 4.49621 16.7502C4.49621 15.0608 5.21946 14.7299 6.46796 14.7299C7.71646 14.7299 8.43971 15.0599 8.43971 16.7502C8.43971 18.4406 7.71646 18.7696 6.46796 18.7696Z" fill="black"/>
</svg>
