<svg width="22" height="22" viewBox="0 0 22 22" fill="none" xmlns="http://www.w3.org/2000/svg">
<g clip-path="url(#clip0_4_357)">
<path d="M15.6227 5.94183C15.0654 5.52292 14.3614 5.39275 13.6913 5.58708L12.364 5.97117C11.7993 6.13525 11.3236 6.48817 11.0009 6.95017C10.6773 6.48908 10.2025 6.13525 9.63783 5.97117L8.3105 5.58708C7.6395 5.39367 6.93642 5.52292 6.37908 5.94183C5.82175 6.36075 5.50183 7.0015 5.50183 7.69908V13.2541C5.50183 14.3513 6.23975 15.3303 7.29483 15.6328L9.6635 16.3121C10.1017 16.4377 10.5655 16.5156 11.0018 16.5H11.0101C11.4574 16.5 11.9057 16.4368 12.3402 16.3121L14.7088 15.6328C15.7639 15.3303 16.5018 14.3523 16.5018 13.2541V7.69908C16.5018 7.0015 16.1819 6.36075 15.6246 5.94183H15.6227ZM10.5417 15.5558C10.3308 15.5311 10.1209 15.4898 9.91375 15.4303L7.54508 14.751C6.8805 14.5603 6.41667 13.9443 6.41667 13.2532V7.69817C6.41667 7.29117 6.60275 6.91808 6.92908 6.67333C7.15458 6.50375 7.42133 6.41575 7.6945 6.41575C7.81458 6.41575 7.9365 6.43317 8.05567 6.46708L9.383 6.85117C10.065 7.04825 10.5426 7.6835 10.5426 8.39392V15.5549L10.5417 15.5558ZM15.5833 13.2532C15.5833 13.9443 15.1186 14.5603 14.4549 14.751L12.0863 15.4303C11.88 15.4889 11.6701 15.5302 11.4583 15.5558V8.39483C11.4583 7.68442 11.9359 7.04917 12.6179 6.85208L13.9453 6.468C14.3394 6.3525 14.7464 6.4295 15.0718 6.67425C15.3973 6.919 15.5842 7.29208 15.5842 7.69908V13.2541L15.5833 13.2532ZM11 0C4.93442 0 0 4.93442 0 11C0 17.0656 4.93442 22 11 22C17.0656 22 22 17.0656 22 11C22 4.93442 17.0656 0 11 0ZM11 21.0833C5.44042 21.0833 0.916667 16.5596 0.916667 11C0.916667 5.44042 5.44042 0.916667 11 0.916667C16.5596 0.916667 21.0833 5.44042 21.0833 11C21.0833 16.5596 16.5596 21.0833 11 21.0833Z" fill="black"/>
</g>
<defs>
<clipPath id="clip0_4_357">
<rect width="22" height="22" fill="white"/>
</clipPath>
</defs>
</svg>
